<svg xmlns="http://www.w3.org/2000/svg" xmlns:xlink="http://www.w3.org/1999/xlink" width="48" zoomAndPan="magnify" viewBox="0 0 36 36.000001" height="48" preserveAspectRatio="xMidYMid meet" version="1.0"><defs><clipPath id="8f94d84ffb"><path d="M 0.488281 0 L 35.511719 0 L 35.511719 35.027344 L 0.488281 35.027344 Z M 0.488281 0 " clip-rule="nonzero"/></clipPath><clipPath id="ab24fac3fe"><path d="M 7.785156 0 L 28.214844 0 C 30.152344 0 32.007812 0.769531 33.375 2.136719 C 34.746094 3.503906 35.511719 5.363281 35.511719 7.296875 L 35.511719 27.730469 C 35.511719 29.664062 34.746094 31.519531 33.375 32.890625 C 32.007812 34.257812 30.152344 35.027344 28.214844 35.027344 L 7.785156 35.027344 C 5.847656 35.027344 3.992188 34.257812 2.625 32.890625 C 1.253906 31.519531 0.488281 29.664062 0.488281 27.730469 L 0.488281 7.296875 C 0.488281 5.363281 1.253906 3.503906 2.625 2.136719 C 3.992188 0.769531 5.847656 0 7.785156 0 Z M 7.785156 0 " clip-rule="nonzero"/></clipPath><clipPath id="5840f3545a"><path d="M 7.410156 8 L 17 8 L 17 28.316406 L 7.410156 28.316406 Z M 7.410156 8 " clip-rule="nonzero"/></clipPath><clipPath id="82d5003826"><path d="M 19 13 L 28.574219 13 L 28.574219 28.316406 L 19 28.316406 Z M 19 13 " clip-rule="nonzero"/></clipPath><clipPath id="f38190d679"><path d="M 14 9 L 22 9 L 22 28.316406 L 14 28.316406 Z M 14 9 " clip-rule="nonzero"/></clipPath><clipPath id="94a330f711"><path d="M 14 6.425781 L 20 6.425781 L 20 10 L 14 10 Z M 14 6.425781 " clip-rule="nonzero"/></clipPath></defs><g clip-path="url(#8f94d84ffb)"><g clip-path="url(#ab24fac3fe)"><path fill="#ac6aff" d="M 0.488281 0 L 35.511719 0 L 35.511719 35.027344 L 0.488281 35.027344 Z M 0.488281 0 " fill-opacity="1" fill-rule="nonzero"/></g></g><path fill="#000000" d="M 13.277344 13.710938 C 13.285156 13.90625 13.253906 14.097656 13.183594 14.28125 C 13.113281 14.464844 13.011719 14.628906 12.875 14.773438 C 12.742188 14.917969 12.582031 15.03125 12.402344 15.113281 C 12.222656 15.195312 12.03125 15.242188 11.832031 15.25 C 11.632812 15.257812 11.441406 15.226562 11.253906 15.160156 C 11.066406 15.089844 10.898438 14.988281 10.753906 14.855469 C 10.605469 14.722656 10.492188 14.566406 10.410156 14.386719 C 10.324219 14.207031 10.28125 14.019531 10.273438 13.824219 C 10.265625 13.625 10.296875 13.4375 10.363281 13.25 C 10.433594 13.066406 10.535156 12.902344 10.671875 12.757812 C 10.808594 12.613281 10.964844 12.5 11.148438 12.417969 C 11.328125 12.335938 11.519531 12.289062 11.71875 12.28125 C 11.917969 12.273438 12.109375 12.304688 12.296875 12.375 C 12.484375 12.441406 12.648438 12.542969 12.796875 12.675781 C 12.941406 12.8125 13.058594 12.96875 13.140625 13.144531 C 13.222656 13.324219 13.269531 13.511719 13.277344 13.710938 Z M 13.277344 13.710938 " fill-opacity="1" fill-rule="nonzero"/><g clip-path="url(#5840f3545a)"><path fill="#000000" d="M 16.03125 25.257812 L 14.976562 20.304688 C 14.976562 20.289062 14.972656 20.269531 14.96875 20.253906 L 14.066406 16.015625 L 14.957031 13.960938 L 14.695312 13.742188 C 14.445312 13.539062 14.363281 13.191406 14.492188 12.898438 L 16.082031 9.296875 C 16.140625 9.160156 16.242188 9.046875 16.363281 8.972656 C 16.265625 8.875 16.128906 8.8125 15.980469 8.8125 C 15.683594 8.8125 15.445312 9.046875 15.445312 9.339844 L 15.445312 10.148438 L 13.128906 15.503906 L 10.894531 15.96875 C 10.726562 16.003906 10.597656 16.113281 10.53125 16.253906 L 7.558594 21.273438 C 7.40625 21.527344 7.492188 21.851562 7.75 21.996094 C 7.832031 22.046875 7.925781 22.070312 8.019531 22.070312 C 8.203125 22.070312 8.378906 21.976562 8.480469 21.808594 L 10.78125 17.921875 L 11.375 20.707031 L 10.757812 27.191406 C 10.714844 27.640625 11.046875 28.039062 11.5 28.082031 C 11.957031 28.125 12.359375 27.792969 12.402344 27.34375 L 12.988281 21.1875 L 13.457031 21.089844 L 14.8125 27.460938 C 14.90625 27.902344 15.34375 28.183594 15.792969 28.09375 C 15.945312 28.058594 16.082031 27.988281 16.1875 27.886719 C 16.089844 27.730469 16.03125 27.546875 16.03125 27.351562 Z M 16.03125 25.257812 " fill-opacity="1" fill-rule="nonzero"/></g><path fill="#000000" d="M 16.738281 11.441406 L 17.921875 12.367188 C 18.101562 12.046875 18.382812 11.792969 18.722656 11.648438 L 17.582031 10.753906 L 17.582031 9.992188 C 17.582031 9.878906 17.546875 9.769531 17.484375 9.683594 C 17.472656 9.75 17.457031 9.8125 17.429688 9.875 Z M 16.738281 11.441406 " fill-opacity="1" fill-rule="nonzero"/><path fill="#000000" d="M 26.242188 13.03125 C 26.3125 13.214844 26.34375 13.40625 26.335938 13.601562 C 26.328125 13.800781 26.28125 13.988281 26.199219 14.167969 C 26.117188 14.347656 26.003906 14.503906 25.855469 14.636719 C 25.710938 14.769531 25.542969 14.871094 25.359375 14.941406 C 25.171875 15.007812 24.976562 15.039062 24.777344 15.03125 C 24.578125 15.027344 24.390625 14.980469 24.207031 14.898438 C 24.027344 14.816406 23.867188 14.703125 23.734375 14.558594 C 23.597656 14.417969 23.492188 14.25 23.425781 14.066406 C 23.355469 13.882812 23.324219 13.691406 23.332031 13.496094 C 23.339844 13.296875 23.382812 13.109375 23.464844 12.933594 C 23.550781 12.753906 23.664062 12.597656 23.808594 12.460938 C 23.957031 12.328125 24.121094 12.226562 24.308594 12.15625 C 24.496094 12.089844 24.6875 12.058594 24.886719 12.066406 C 25.085938 12.074219 25.277344 12.117188 25.457031 12.199219 C 25.640625 12.28125 25.796875 12.394531 25.933594 12.539062 C 26.070312 12.683594 26.171875 12.847656 26.242188 13.03125 Z M 26.242188 13.03125 " fill-opacity="1" fill-rule="nonzero"/><g clip-path="url(#82d5003826)"><path fill="#000000" d="M 23.605469 20.96875 L 24.808594 27.574219 C 24.890625 28.019531 25.320312 28.3125 25.769531 28.234375 C 26.21875 28.152344 26.515625 27.730469 26.433594 27.285156 L 25.214844 20.582031 L 25.78125 17.921875 L 27.476562 21.546875 C 27.566406 21.738281 27.761719 21.851562 27.964844 21.851562 C 28.039062 21.851562 28.113281 21.835938 28.1875 21.800781 C 28.457031 21.679688 28.570312 21.367188 28.449219 21.101562 L 26.089844 16.074219 C 26.03125 15.914062 25.894531 15.789062 25.714844 15.753906 L 23.324219 15.257812 L 21.082031 13.496094 C 21.082031 13.503906 21.078125 13.511719 21.078125 13.519531 C 21.003906 13.878906 20.8125 14.195312 20.550781 14.429688 L 22.503906 15.960938 L 21.714844 19.667969 L 20.046875 24.578125 L 20.046875 27.351562 C 20.046875 27.625 19.9375 27.871094 19.757812 28.054688 C 19.835938 28.078125 19.914062 28.089844 19.992188 28.089844 C 20.332031 28.089844 20.652344 27.875 20.765625 27.535156 L 23.039062 20.851562 Z M 23.605469 20.96875 " fill-opacity="1" fill-rule="nonzero"/></g><g clip-path="url(#f38190d679)"><path fill="#000000" d="M 19.847656 20.042969 L 20.050781 19.046875 L 20.289062 19.300781 C 20.394531 19.410156 20.539062 19.46875 20.683594 19.46875 C 20.761719 19.46875 20.839844 19.453125 20.917969 19.414062 C 21.128906 19.3125 21.246094 19.089844 21.210938 18.859375 L 20.714844 15.761719 C 20.714844 15.523438 20.546875 15.308594 20.300781 15.261719 L 17.917969 14.785156 L 15.816406 13.039062 L 17.246094 9.796875 C 17.363281 9.53125 17.238281 9.21875 16.96875 9.101562 C 16.699219 8.984375 16.382812 9.109375 16.265625 9.375 L 14.675781 12.976562 C 14.582031 13.191406 14.640625 13.441406 14.824219 13.59375 L 17.09375 15.480469 L 16.253906 19.578125 C 16.25 19.601562 16.246094 19.625 16.246094 19.648438 C 16.238281 19.695312 16.234375 19.746094 16.234375 19.792969 L 16.234375 27.351562 C 16.234375 27.800781 16.601562 28.167969 17.058594 28.167969 C 17.515625 28.167969 17.886719 27.800781 17.886719 27.351562 L 17.886719 20.421875 L 18.195312 20.484375 L 18.195312 27.351562 C 18.195312 27.800781 18.5625 28.167969 19.019531 28.167969 C 19.476562 28.167969 19.847656 27.800781 19.847656 27.351562 Z M 19.847656 20.042969 " fill-opacity="1" fill-rule="nonzero"/></g><path fill="#000000" d="M 20.882812 13.480469 C 21.046875 12.675781 20.519531 11.890625 19.707031 11.730469 C 18.894531 11.566406 18.101562 12.085938 17.9375 12.890625 C 17.769531 13.695312 18.296875 14.476562 19.109375 14.640625 C 19.925781 14.800781 20.71875 14.28125 20.882812 13.480469 Z M 20.882812 13.480469 " fill-opacity="1" fill-rule="nonzero"/><g clip-path="url(#94a330f711)"><path fill="#000000" d="M 18.003906 8.144531 L 18.273438 6.957031 L 17.347656 7.660156 L 16.960938 6.429688 L 16.527344 7.664062 L 15.777344 6.96875 L 15.867188 7.867188 L 14.769531 7.433594 L 15.4375 8.46875 L 15.605469 8.359375 L 15.273438 7.84375 L 16.101562 8.171875 L 16.03125 7.472656 L 16.617188 8.015625 L 16.949219 7.066406 L 17.238281 7.988281 L 17.957031 7.445312 L 17.742188 8.402344 L 18.59375 8.222656 L 17.910156 9.015625 L 18.496094 9.304688 L 18.003906 9.464844 L 18.066406 9.652344 L 19.027344 9.34375 L 18.226562 8.953125 L 19.125 7.910156 Z M 18.003906 8.144531 " fill-opacity="1" fill-rule="nonzero"/></g></svg>