<svg xmlns="http://www.w3.org/2000/svg" xmlns:xlink="http://www.w3.org/1999/xlink" width="48" zoomAndPan="magnify" viewBox="0 0 36 36.000001" height="48" preserveAspectRatio="xMidYMid meet" version="1.0"><defs><clipPath id="846ec31d9b"><path d="M 0.488281 0 L 35.511719 0 L 35.511719 35.027344 L 0.488281 35.027344 Z M 0.488281 0 " clip-rule="nonzero"/></clipPath><clipPath id="39ab21aee1"><path d="M 7.785156 0 L 28.214844 0 C 30.152344 0 32.007812 0.769531 33.375 2.136719 C 34.746094 3.503906 35.511719 5.363281 35.511719 7.296875 L 35.511719 27.730469 C 35.511719 29.664062 34.746094 31.519531 33.375 32.890625 C 32.007812 34.257812 30.152344 35.027344 28.214844 35.027344 L 7.785156 35.027344 C 5.847656 35.027344 3.992188 34.257812 2.625 32.890625 C 1.253906 31.519531 0.488281 29.664062 0.488281 27.730469 L 0.488281 7.296875 C 0.488281 5.363281 1.253906 3.503906 2.625 2.136719 C 3.992188 0.769531 5.847656 0 7.785156 0 Z M 7.785156 0 " clip-rule="nonzero"/></clipPath><clipPath id="4da852f404"><path d="M 4.667969 15 L 9 15 L 9 23 L 4.667969 23 Z M 4.667969 15 " clip-rule="nonzero"/></clipPath><clipPath id="b8f46abc79"><path d="M 28 15 L 31.667969 15 L 31.667969 23 L 28 23 Z M 28 15 " clip-rule="nonzero"/></clipPath><clipPath id="874ca6fa7b"><path d="M 16 6.683594 L 20 6.683594 L 20 10 L 16 10 Z M 16 6.683594 " clip-rule="nonzero"/></clipPath><clipPath id="fd0cddcaa0"><path d="M 16 25 L 21 25 L 21 28.574219 L 16 28.574219 Z M 16 25 " clip-rule="nonzero"/></clipPath></defs><g clip-path="url(#846ec31d9b)"><g clip-path="url(#39ab21aee1)"><path fill="#7adb78" d="M 0.488281 0 L 35.511719 0 L 35.511719 35.027344 L 0.488281 35.027344 Z M 0.488281 0 " fill-opacity="1" fill-rule="nonzero"/></g></g><path fill="#111111" d="M 21.964844 18.890625 C 21.5 18.890625 21.121094 18.515625 21.121094 18.046875 C 21.121094 17.582031 21.5 17.207031 21.964844 17.207031 C 22.429688 17.207031 22.808594 17.582031 22.808594 18.046875 C 22.808594 18.515625 22.429688 18.890625 21.964844 18.890625 Z M 18.167969 21.621094 C 17.003906 21.621094 16.058594 20.867188 16.058594 19.9375 L 20.277344 19.9375 C 20.277344 20.867188 19.332031 21.621094 18.167969 21.621094 Z M 14.375 18.890625 C 13.90625 18.890625 13.53125 18.515625 13.53125 18.046875 C 13.53125 17.582031 13.90625 17.207031 14.375 17.207031 C 14.839844 17.207031 15.214844 17.582031 15.214844 18.046875 C 15.214844 18.515625 14.839844 18.890625 14.375 18.890625 Z M 21.542969 13.839844 L 14.792969 13.839844 C 13.398438 13.839844 12.132812 14.402344 11.214844 15.320312 C 10.300781 16.234375 9.734375 17.496094 9.734375 18.890625 C 9.734375 21.679688 12 23.941406 14.792969 23.941406 L 21.542969 23.941406 C 22.941406 23.941406 24.207031 23.378906 25.121094 22.464844 C 26.035156 21.546875 26.601562 20.285156 26.601562 18.890625 C 26.601562 16.101562 24.335938 13.839844 21.542969 13.839844 " fill-opacity="1" fill-rule="nonzero"/><path fill="#111111" d="M 18.167969 27.3125 L 15.636719 27.3125 C 14.5 27.3125 13.394531 27.089844 12.355469 26.648438 C 11.351562 26.226562 10.449219 25.617188 9.675781 24.84375 C 8.898438 24.070312 8.292969 23.171875 7.867188 22.167969 C 7.425781 21.128906 7.203125 20.027344 7.203125 18.890625 C 7.203125 17.753906 7.425781 16.652344 7.867188 15.613281 C 8.292969 14.609375 8.898438 13.710938 9.675781 12.9375 C 10.449219 12.164062 11.351562 11.558594 12.355469 11.132812 C 13.394531 10.695312 14.5 10.472656 15.636719 10.472656 L 20.699219 10.472656 C 21.835938 10.472656 22.941406 10.695312 23.984375 11.132812 C 24.988281 11.558594 25.890625 12.164062 26.664062 12.9375 C 27.4375 13.710938 28.046875 14.609375 28.472656 15.613281 C 28.910156 16.652344 29.132812 17.753906 29.132812 18.890625 L 28.289062 18.890625 C 28.289062 14.710938 24.886719 11.3125 20.699219 11.3125 L 15.636719 11.3125 C 11.453125 11.3125 8.046875 14.710938 8.046875 18.890625 C 8.046875 23.070312 11.453125 26.46875 15.636719 26.46875 L 18.167969 26.46875 L 18.167969 27.3125 " fill-opacity="1" fill-rule="nonzero"/><g clip-path="url(#4da852f404)"><path fill="#111111" d="M 8.046875 22.257812 C 6.183594 22.257812 4.671875 20.75 4.671875 18.890625 C 4.671875 17.03125 6.183594 15.523438 8.046875 15.523438 L 8.046875 22.257812 " fill-opacity="1" fill-rule="nonzero"/></g><g clip-path="url(#b8f46abc79)"><path fill="#111111" d="M 28.289062 22.257812 C 30.152344 22.257812 31.664062 20.75 31.664062 18.890625 C 31.664062 17.03125 30.152344 15.523438 28.289062 15.523438 L 28.289062 22.257812 " fill-opacity="1" fill-rule="nonzero"/></g><path fill="#111111" d="M 20.277344 14.261719 C 20.277344 15.191406 19.332031 15.945312 18.167969 15.945312 C 17.003906 15.945312 16.058594 15.191406 16.058594 14.261719 C 16.058594 13.328125 17.003906 12.574219 18.167969 12.574219 C 19.332031 12.574219 20.277344 13.328125 20.277344 14.261719 " fill-opacity="1" fill-rule="nonzero"/><g clip-path="url(#874ca6fa7b)"><path fill="#111111" d="M 19.433594 7.945312 C 19.433594 8.640625 18.867188 9.207031 18.167969 9.207031 C 17.46875 9.207031 16.902344 8.640625 16.902344 7.945312 C 16.902344 7.246094 17.46875 6.683594 18.167969 6.683594 C 18.867188 6.683594 19.433594 7.246094 19.433594 7.945312 " fill-opacity="1" fill-rule="nonzero"/></g><g clip-path="url(#fd0cddcaa0)"><path fill="#111111" d="M 20.699219 26.890625 C 20.699219 27.820312 19.753906 28.574219 18.589844 28.574219 C 17.425781 28.574219 16.480469 27.820312 16.480469 26.890625 C 16.480469 25.960938 17.425781 25.207031 18.589844 25.207031 C 19.753906 25.207031 20.699219 25.960938 20.699219 26.890625 " fill-opacity="1" fill-rule="nonzero"/></g><path fill="#111111" d="M 18.589844 15.539062 L 17.746094 15.539062 L 17.746094 7.945312 L 18.589844 7.945312 L 18.589844 15.539062 " fill-opacity="1" fill-rule="nonzero"/></svg>