<svg xmlns="http://www.w3.org/2000/svg" xmlns:xlink="http://www.w3.org/1999/xlink" width="48" zoomAndPan="magnify" viewBox="0 0 36 36.000001" height="48" preserveAspectRatio="xMidYMid meet" version="1.0"><defs><clipPath id="71e5236572"><path d="M 0.488281 0 L 35.511719 0 L 35.511719 35.027344 L 0.488281 35.027344 Z M 0.488281 0 " clip-rule="nonzero"/></clipPath><clipPath id="d07dc718ee"><path d="M 7.785156 0 L 28.214844 0 C 30.152344 0 32.007812 0.769531 33.375 2.136719 C 34.746094 3.503906 35.511719 5.363281 35.511719 7.296875 L 35.511719 27.730469 C 35.511719 29.664062 34.746094 31.519531 33.375 32.890625 C 32.007812 34.257812 30.152344 35.027344 28.214844 35.027344 L 7.785156 35.027344 C 5.847656 35.027344 3.992188 34.257812 2.625 32.890625 C 1.253906 31.519531 0.488281 29.664062 0.488281 27.730469 L 0.488281 7.296875 C 0.488281 5.363281 1.253906 3.503906 2.625 2.136719 C 3.992188 0.769531 5.847656 0 7.785156 0 Z M 7.785156 0 " clip-rule="nonzero"/></clipPath><clipPath id="0bcbba1884"><path d="M 10.671875 6.535156 L 25.265625 6.535156 L 25.265625 28.425781 L 10.671875 28.425781 Z M 10.671875 6.535156 " clip-rule="nonzero"/></clipPath></defs><g clip-path="url(#71e5236572)"><g clip-path="url(#d07dc718ee)"><path fill="#7adb78" d="M 0.488281 0 L 35.511719 0 L 35.511719 35.027344 L 0.488281 35.027344 Z M 0.488281 0 " fill-opacity="1" fill-rule="nonzero"/></g></g><g clip-path="url(#0bcbba1884)"><path fill="#000000" d="M 14.957031 19.285156 L 14.957031 19.199219 C 14.957031 17.597656 15.824219 16.523438 17.421875 15.613281 C 19.417969 14.4375 19.933594 13.804688 19.933594 12.542969 C 19.933594 11.351562 18.976562 10.515625 17.65625 10.515625 C 16.484375 10.515625 15.691406 11.058594 15.238281 12.128906 C 14.8125 13.085938 13.972656 13.570312 12.945312 13.570312 C 11.566406 13.570312 10.6875 12.71875 10.703125 11.394531 C 10.703125 10.765625 10.847656 10.191406 11.15625 9.632812 C 12.140625 7.78125 14.589844 6.515625 17.921875 6.515625 C 22.367188 6.515625 25.289062 8.839844 25.289062 12.410156 C 25.289062 14.570312 24.277344 16.066406 22.117188 17.316406 C 20.207031 18.421875 19.765625 18.953125 19.476562 19.914062 C 19.460938 19.960938 19.445312 20.011719 19.433594 20.0625 C 19.09375 21.09375 18.40625 21.636719 17.277344 21.636719 C 15.867188 21.636719 14.957031 20.683594 14.957031 19.285156 Z M 14.574219 25.75 C 14.574219 24.28125 15.808594 23.121094 17.347656 23.121094 C 18.875 23.121094 20.121094 24.28125 20.121094 25.75 C 20.121094 27.234375 18.875 28.394531 17.347656 28.394531 C 15.808594 28.394531 14.574219 27.234375 14.574219 25.75 Z M 14.574219 25.75 " fill-opacity="1" fill-rule="nonzero"/></g></svg>