<svg xmlns="http://www.w3.org/2000/svg" xmlns:xlink="http://www.w3.org/1999/xlink" width="48" zoomAndPan="magnify" viewBox="0 0 36 36.000001" height="48" preserveAspectRatio="xMidYMid meet" version="1.0"><defs><clipPath id="b62b7b2956"><path d="M 0.488281 0 L 35.511719 0 L 35.511719 35.027344 L 0.488281 35.027344 Z M 0.488281 0 " clip-rule="nonzero"/></clipPath><clipPath id="a82600b6df"><path d="M 7.785156 0 L 28.214844 0 C 30.152344 0 32.007812 0.769531 33.375 2.136719 C 34.746094 3.503906 35.511719 5.363281 35.511719 7.296875 L 35.511719 27.730469 C 35.511719 29.664062 34.746094 31.519531 33.375 32.890625 C 32.007812 34.257812 30.152344 35.027344 28.214844 35.027344 L 7.785156 35.027344 C 5.847656 35.027344 3.992188 34.257812 2.625 32.890625 C 1.253906 31.519531 0.488281 29.664062 0.488281 27.730469 L 0.488281 7.296875 C 0.488281 5.363281 1.253906 3.503906 2.625 2.136719 C 3.992188 0.769531 5.847656 0 7.785156 0 Z M 7.785156 0 " clip-rule="nonzero"/></clipPath><clipPath id="580a01d9b8"><path d="M 6.910156 6.535156 L 28.804688 6.535156 L 28.804688 28.425781 L 6.910156 28.425781 Z M 6.910156 6.535156 " clip-rule="nonzero"/></clipPath></defs><g clip-path="url(#b62b7b2956)"><g clip-path="url(#a82600b6df)"><path fill="#ff776f" d="M 0.488281 0 L 35.511719 0 L 35.511719 35.027344 L 0.488281 35.027344 Z M 0.488281 0 " fill-opacity="1" fill-rule="nonzero"/></g></g><g clip-path="url(#580a01d9b8)"><path fill="#000000" d="M 20.179688 15.085938 C 22.652344 15.085938 24.65625 17.109375 24.65625 19.605469 C 24.65625 22.101562 22.652344 24.125 20.179688 24.125 C 17.710938 24.125 15.707031 22.101562 15.707031 19.605469 C 15.707031 17.109375 17.710938 15.085938 20.179688 15.085938 Z M 23.589844 23.53125 L 24.460938 24.394531 L 24.414062 24.441406 C 24.257812 24.605469 24.261719 24.867188 24.421875 25.023438 L 26.878906 27.433594 C 27.039062 27.589844 27.296875 27.585938 27.453125 27.425781 L 28.339844 26.5 C 28.496094 26.339844 28.492188 26.078125 28.332031 25.917969 L 25.875 23.511719 C 25.714844 23.351562 25.457031 23.355469 25.300781 23.519531 L 25.246094 23.574219 L 24.351562 22.691406 C 24.128906 22.996094 23.871094 23.28125 23.589844 23.53125 Z M 11.105469 6.671875 C 8.761719 6.851562 6.910156 8.832031 6.910156 11.25 C 6.910156 13.785156 8.945312 15.839844 11.453125 15.839844 C 12.160156 15.839844 12.828125 15.679688 13.421875 15.386719 L 11.167969 11.445312 C 11.128906 11.390625 11.105469 11.320312 11.105469 11.25 Z M 21.628906 24.621094 L 21.628906 27.988281 C 21.628906 28.230469 21.433594 28.425781 21.195312 28.425781 C 20.710938 28.425781 20.230469 28.425781 19.75 28.425781 C 19.511719 28.425781 19.316406 28.230469 19.316406 27.988281 L 19.316406 24.753906 C 19.597656 24.800781 19.886719 24.828125 20.179688 24.828125 C 20.683594 24.828125 21.167969 24.753906 21.628906 24.621094 Z M 21.734375 8.707031 C 21.542969 8.707031 21.386719 8.550781 21.386719 8.359375 C 21.386719 8.164062 21.542969 8.007812 21.734375 8.007812 L 25.09375 8.007812 C 25.285156 8.007812 25.441406 8.164062 25.441406 8.359375 C 25.441406 8.550781 25.285156 8.707031 25.09375 8.707031 Z M 18.640625 13.789062 L 19.8125 13.789062 C 20.082031 13.789062 20.300781 14.011719 20.300781 14.28125 L 20.300781 14.382812 C 20.261719 14.382812 20.222656 14.382812 20.179688 14.382812 C 19.460938 14.382812 18.773438 14.53125 18.152344 14.800781 L 18.152344 14.28125 C 18.152344 14.011719 18.371094 13.789062 18.640625 13.789062 Z M 23.050781 15.257812 C 23.351562 15.464844 23.632812 15.699219 23.882812 15.960938 L 25.09375 15.960938 C 25.285156 15.960938 25.441406 15.804688 25.441406 15.609375 C 25.441406 15.417969 25.285156 15.257812 25.09375 15.257812 Z M 21.734375 14.492188 C 21.542969 14.492188 21.386719 14.335938 21.386719 14.140625 C 21.386719 13.945312 21.542969 13.789062 21.734375 13.789062 L 28.457031 13.789062 C 28.648438 13.789062 28.804688 13.945312 28.804688 14.140625 C 28.804688 14.335938 28.648438 14.492188 28.457031 14.492188 Z M 18.640625 10.164062 L 19.8125 10.164062 C 20.082031 10.164062 20.300781 10.386719 20.300781 10.65625 L 20.300781 11.839844 C 20.300781 12.113281 20.082031 12.335938 19.8125 12.335938 L 18.640625 12.335938 C 18.371094 12.335938 18.152344 12.113281 18.152344 11.839844 L 18.152344 10.65625 C 18.152344 10.386719 18.371094 10.164062 18.640625 10.164062 Z M 21.734375 12.335938 C 21.542969 12.335938 21.386719 12.179688 21.386719 11.984375 C 21.386719 11.789062 21.542969 11.632812 21.734375 11.632812 L 25.09375 11.632812 C 25.285156 11.632812 25.441406 11.789062 25.441406 11.984375 C 25.441406 12.179688 25.285156 12.335938 25.09375 12.335938 Z M 21.734375 10.863281 C 21.542969 10.863281 21.386719 10.707031 21.386719 10.515625 C 21.386719 10.320312 21.542969 10.164062 21.734375 10.164062 L 28.457031 10.164062 C 28.648438 10.164062 28.804688 10.320312 28.804688 10.515625 C 28.804688 10.707031 28.648438 10.863281 28.457031 10.863281 Z M 18.640625 6.535156 L 19.8125 6.535156 C 20.082031 6.535156 20.300781 6.757812 20.300781 7.03125 L 20.300781 8.214844 C 20.300781 8.488281 20.082031 8.707031 19.8125 8.707031 L 18.640625 8.707031 C 18.371094 8.707031 18.152344 8.488281 18.152344 8.214844 L 18.152344 7.03125 C 18.152344 6.757812 18.371094 6.535156 18.640625 6.535156 Z M 21.734375 7.238281 C 21.542969 7.238281 21.386719 7.082031 21.386719 6.886719 C 21.386719 6.695312 21.542969 6.535156 21.734375 6.535156 L 28.457031 6.535156 C 28.648438 6.535156 28.804688 6.695312 28.804688 6.886719 C 28.804688 7.082031 28.648438 7.238281 28.457031 7.238281 Z M 17.433594 24.027344 C 16.535156 23.457031 15.824219 22.617188 15.410156 21.621094 C 15.242188 21.679688 15.121094 21.84375 15.121094 22.035156 C 15.121094 24.019531 15.121094 26.003906 15.121094 27.988281 C 15.121094 28.230469 15.316406 28.425781 15.554688 28.425781 C 16.035156 28.425781 16.515625 28.425781 17 28.425781 C 17.238281 28.425781 17.433594 28.230469 17.433594 27.988281 Z M 11.359375 18.359375 C 11.839844 18.359375 12.320312 18.359375 12.804688 18.359375 C 13.042969 18.359375 13.238281 18.558594 13.238281 18.800781 C 13.238281 21.863281 13.238281 24.925781 13.238281 27.988281 C 13.238281 28.230469 13.042969 28.425781 12.804688 28.425781 C 12.320312 28.425781 11.839844 28.425781 11.359375 28.425781 C 11.121094 28.425781 10.925781 28.230469 10.925781 27.988281 C 10.925781 24.925781 10.925781 21.863281 10.925781 18.800781 C 10.925781 18.558594 11.121094 18.359375 11.359375 18.359375 Z M 7.34375 20.410156 C 7.828125 20.410156 8.308594 20.410156 8.789062 20.410156 C 9.027344 20.410156 9.222656 20.605469 9.222656 20.847656 C 9.222656 23.226562 9.222656 25.609375 9.222656 27.988281 C 9.222656 28.230469 9.027344 28.425781 8.789062 28.425781 C 8.308594 28.425781 7.828125 28.425781 7.34375 28.425781 C 7.105469 28.425781 6.910156 28.230469 6.910156 27.988281 C 6.910156 25.609375 6.910156 23.226562 6.910156 20.847656 C 6.910156 20.605469 7.105469 20.410156 7.34375 20.410156 Z M 14.023438 15.039062 L 12.054688 11.601562 L 15.984375 11.601562 C 15.878906 13.027344 15.125 14.273438 14.023438 15.039062 Z M 15.984375 10.898438 L 11.800781 10.898438 L 11.800781 6.671875 C 14.035156 6.839844 15.816406 8.640625 15.984375 10.898438 Z M 20.179688 16.664062 C 19.378906 16.664062 18.648438 16.992188 18.125 17.523438 C 17.597656 18.058594 17.269531 18.792969 17.269531 19.605469 C 17.269531 20.351562 17.546875 21.035156 18.003906 21.554688 C 18.285156 20.609375 19.15625 19.921875 20.179688 19.921875 C 21.207031 19.921875 22.078125 20.609375 22.359375 21.554688 C 22.816406 21.035156 23.089844 20.351562 23.089844 19.605469 C 23.089844 18.792969 22.765625 18.058594 22.238281 17.523438 C 21.710938 16.992188 20.984375 16.664062 20.179688 16.664062 Z M 20.179688 17.425781 C 19.546875 17.425781 19.03125 17.945312 19.03125 18.585938 C 19.03125 19.226562 19.546875 19.75 20.179688 19.75 C 20.816406 19.75 21.332031 19.226562 21.332031 18.585938 C 21.332031 17.945312 20.816406 17.425781 20.179688 17.425781 Z M 17.632812 17.027344 C 16.980469 17.6875 16.578125 18.597656 16.578125 19.605469 C 16.578125 20.609375 16.980469 21.519531 17.632812 22.179688 C 18.285156 22.839844 19.1875 23.246094 20.179688 23.246094 C 21.175781 23.246094 22.078125 22.839844 22.730469 22.179688 C 23.382812 21.519531 23.785156 20.609375 23.785156 19.605469 C 23.785156 18.597656 23.382812 17.6875 22.730469 17.027344 C 22.078125 16.371094 21.175781 15.960938 20.179688 15.960938 C 19.1875 15.960938 18.285156 16.371094 17.632812 17.027344 Z M 17.632812 17.027344 " fill-opacity="1" fill-rule="evenodd"/></g></svg>