<svg xmlns="http://www.w3.org/2000/svg" xmlns:xlink="http://www.w3.org/1999/xlink" width="48" zoomAndPan="magnify" viewBox="0 0 36 36.000001" height="48" preserveAspectRatio="xMidYMid meet" version="1.0"><defs><clipPath id="7b968b3c38"><path d="M 0.488281 0 L 35.511719 0 L 35.511719 35.027344 L 0.488281 35.027344 Z M 0.488281 0 " clip-rule="nonzero"/></clipPath><clipPath id="43dc0953bd"><path d="M 7.785156 0 L 28.214844 0 C 30.152344 0 32.007812 0.769531 33.375 2.136719 C 34.746094 3.503906 35.511719 5.363281 35.511719 7.296875 L 35.511719 27.730469 C 35.511719 29.664062 34.746094 31.519531 33.375 32.890625 C 32.007812 34.257812 30.152344 35.027344 28.214844 35.027344 L 7.785156 35.027344 C 5.847656 35.027344 3.992188 34.257812 2.625 32.890625 C 1.253906 31.519531 0.488281 29.664062 0.488281 27.730469 L 0.488281 7.296875 C 0.488281 5.363281 1.253906 3.503906 2.625 2.136719 C 3.992188 0.769531 5.847656 0 7.785156 0 Z M 7.785156 0 " clip-rule="nonzero"/></clipPath><clipPath id="689347b783"><path d="M 7.175781 19 L 17 19 L 17 28.425781 L 7.175781 28.425781 Z M 7.175781 19 " clip-rule="nonzero"/></clipPath><clipPath id="f9d3fafefc"><path d="M 13 6.535156 L 29 6.535156 L 29 23 L 13 23 Z M 13 6.535156 " clip-rule="nonzero"/></clipPath></defs><g clip-path="url(#7b968b3c38)"><g clip-path="url(#43dc0953bd)"><path fill="#ffc876" d="M 0.488281 0 L 35.511719 0 L 35.511719 35.027344 L 0.488281 35.027344 Z M 0.488281 0 " fill-opacity="1" fill-rule="nonzero"/></g></g><g clip-path="url(#689347b783)"><path fill="#010101" d="M 16.132812 24.328125 L 15.636719 24.148438 C 15.671875 23.792969 15.65625 23.414062 15.601562 23.058594 L 16.082031 22.84375 C 16.382812 22.699219 16.507812 22.339844 16.363281 22.054688 L 16.082031 21.445312 C 15.9375 21.140625 15.585938 21.015625 15.300781 21.160156 L 14.820312 21.375 C 14.589844 21.089844 14.324219 20.835938 14.023438 20.621094 L 14.203125 20.121094 C 14.308594 19.816406 14.148438 19.460938 13.847656 19.351562 L 13.226562 19.121094 C 12.925781 19.011719 12.570312 19.171875 12.464844 19.476562 L 12.285156 19.976562 C 11.929688 19.941406 11.558594 19.960938 11.203125 20.015625 L 10.972656 19.511719 C 10.832031 19.207031 10.476562 19.082031 10.191406 19.226562 L 9.589844 19.511719 C 9.289062 19.65625 9.164062 20.015625 9.308594 20.300781 L 9.519531 20.785156 C 9.234375 21.015625 8.988281 21.285156 8.773438 21.589844 L 8.277344 21.410156 C 7.976562 21.304688 7.621094 21.464844 7.515625 21.769531 L 7.285156 22.394531 C 7.230469 22.539062 7.230469 22.699219 7.300781 22.859375 C 7.375 23.003906 7.480469 23.109375 7.640625 23.164062 L 8.136719 23.34375 C 8.101562 23.703125 8.117188 24.078125 8.171875 24.4375 L 7.691406 24.652344 C 7.390625 24.792969 7.265625 25.152344 7.410156 25.4375 L 7.691406 26.046875 C 7.835938 26.351562 8.1875 26.476562 8.472656 26.332031 L 8.953125 26.117188 C 9.183594 26.40625 9.449219 26.65625 9.75 26.871094 L 9.574219 27.371094 C 9.519531 27.515625 9.519531 27.675781 9.589844 27.835938 C 9.660156 27.980469 9.769531 28.085938 9.925781 28.140625 L 10.546875 28.375 C 10.691406 28.425781 10.847656 28.425781 11.007812 28.355469 C 11.152344 28.285156 11.257812 28.175781 11.3125 28.015625 L 11.488281 27.515625 C 11.84375 27.550781 12.214844 27.53125 12.570312 27.480469 L 12.78125 27.960938 C 12.925781 28.265625 13.277344 28.390625 13.5625 28.25 L 14.164062 27.960938 C 14.46875 27.820312 14.589844 27.460938 14.449219 27.175781 L 14.238281 26.691406 C 14.519531 26.457031 14.769531 26.191406 14.980469 25.886719 L 15.476562 26.066406 C 15.621094 26.117188 15.796875 26.117188 15.9375 26.046875 C 16.082031 25.976562 16.1875 25.867188 16.242188 25.707031 L 16.472656 25.078125 C 16.59375 24.792969 16.4375 24.453125 16.132812 24.328125 Z M 12.871094 25.902344 C 12.550781 26.046875 12.234375 26.117188 11.894531 26.117188 C 10.972656 26.117188 10.140625 25.582031 9.769531 24.738281 C 9.21875 23.558594 9.75 22.144531 10.921875 21.589844 C 11.238281 21.445312 11.558594 21.375 11.894531 21.375 C 12.816406 21.375 13.652344 21.910156 14.023438 22.753906 C 14.554688 23.953125 14.042969 25.347656 12.871094 25.902344 Z M 12.871094 25.902344 " fill-opacity="1" fill-rule="nonzero"/></g><g clip-path="url(#f9d3fafefc)"><path fill="#010101" d="M 28.230469 15.503906 L 27.394531 15.199219 C 27.464844 14.589844 27.429688 13.964844 27.324219 13.355469 L 28.121094 12.980469 C 28.621094 12.746094 28.851562 12.15625 28.621094 11.636719 L 28.160156 10.617188 C 27.925781 10.117188 27.34375 9.882812 26.828125 10.117188 L 26.03125 10.492188 C 25.640625 10.007812 25.179688 9.578125 24.683594 9.238281 L 24.984375 8.398438 C 25.179688 7.878906 24.914062 7.289062 24.398438 7.109375 L 23.351562 6.714844 C 22.855469 6.535156 22.253906 6.804688 22.074219 7.304688 L 21.773438 8.148438 C 21.171875 8.074219 20.550781 8.109375 19.945312 8.21875 L 19.574219 7.414062 C 19.34375 6.910156 18.757812 6.679688 18.246094 6.910156 L 17.234375 7.375 C 16.738281 7.609375 16.507812 8.199219 16.738281 8.71875 L 17.109375 9.523438 C 16.632812 9.917969 16.207031 10.382812 15.867188 10.886719 L 15.035156 10.582031 C 14.539062 10.402344 13.933594 10.671875 13.757812 11.171875 L 13.367188 12.226562 C 13.277344 12.476562 13.277344 12.746094 13.402344 12.996094 C 13.507812 13.246094 13.722656 13.425781 13.972656 13.515625 L 14.804688 13.820312 C 14.734375 14.429688 14.75 15.054688 14.875 15.664062 L 14.078125 16.039062 C 13.582031 16.273438 13.351562 16.863281 13.582031 17.382812 L 14.042969 18.402344 C 14.273438 18.90625 14.859375 19.136719 15.371094 18.90625 L 16.167969 18.527344 C 16.558594 19.011719 17.019531 19.441406 17.519531 19.78125 L 17.214844 20.621094 C 17.128906 20.875 17.128906 21.140625 17.25 21.394531 C 17.359375 21.644531 17.570312 21.820312 17.820312 21.910156 L 18.867188 22.304688 C 19.113281 22.394531 19.378906 22.394531 19.628906 22.269531 C 19.875 22.164062 20.054688 21.949219 20.140625 21.695312 L 20.445312 20.855469 C 21.046875 20.925781 21.667969 20.910156 22.269531 20.785156 L 22.644531 21.589844 C 22.875 22.089844 23.457031 22.324219 23.972656 22.089844 L 24.984375 21.625 C 25.480469 21.394531 25.710938 20.800781 25.480469 20.28125 L 25.109375 19.476562 C 25.585938 19.082031 26.011719 18.617188 26.347656 18.117188 L 27.183594 18.421875 C 27.429688 18.511719 27.695312 18.511719 27.945312 18.386719 C 28.195312 18.277344 28.371094 18.0625 28.460938 17.8125 L 28.851562 16.757812 C 29.007812 16.273438 28.742188 15.699219 28.230469 15.503906 Z M 22.75 18.136719 C 22.234375 18.386719 21.667969 18.492188 21.101562 18.492188 C 19.558594 18.492188 18.15625 17.578125 17.519531 16.183594 C 16.59375 14.195312 17.464844 11.816406 19.433594 10.902344 C 19.945312 10.652344 20.515625 10.546875 21.082031 10.546875 C 22.625 10.546875 24.027344 11.457031 24.664062 12.855469 C 25.585938 14.839844 24.71875 17.222656 22.75 18.136719 Z M 22.75 18.136719 " fill-opacity="1" fill-rule="nonzero"/></g></svg>