<svg xmlns="http://www.w3.org/2000/svg" xmlns:xlink="http://www.w3.org/1999/xlink" width="48" zoomAndPan="magnify" viewBox="0 0 36 36.000001" height="48" preserveAspectRatio="xMidYMid meet" version="1.0"><defs><clipPath id="bbd8cc6855"><path d="M 0.488281 0 L 35.511719 0 L 35.511719 35.027344 L 0.488281 35.027344 Z M 0.488281 0 " clip-rule="nonzero"/></clipPath><clipPath id="59de39b310"><path d="M 7.785156 0 L 28.214844 0 C 30.152344 0 32.007812 0.769531 33.375 2.136719 C 34.746094 3.503906 35.511719 5.363281 35.511719 7.296875 L 35.511719 27.730469 C 35.511719 29.664062 34.746094 31.519531 33.375 32.890625 C 32.007812 34.257812 30.152344 35.027344 28.214844 35.027344 L 7.785156 35.027344 C 5.847656 35.027344 3.992188 34.257812 2.625 32.890625 C 1.253906 31.519531 0.488281 29.664062 0.488281 27.730469 L 0.488281 7.296875 C 0.488281 5.363281 1.253906 3.503906 2.625 2.136719 C 3.992188 0.769531 5.847656 0 7.785156 0 Z M 7.785156 0 " clip-rule="nonzero"/></clipPath><clipPath id="a9ab0702c0"><path d="M 16 19 L 27 19 L 27 28.183594 L 16 28.183594 Z M 16 19 " clip-rule="nonzero"/></clipPath><clipPath id="920f48003c"><path d="M 9.074219 13 L 21 13 L 21 23 L 9.074219 23 Z M 9.074219 13 " clip-rule="nonzero"/></clipPath><clipPath id="6ccb926d0f"><path d="M 16 6.289062 L 27.316406 6.289062 L 27.316406 16 L 16 16 Z M 16 6.289062 " clip-rule="nonzero"/></clipPath></defs><g clip-path="url(#bbd8cc6855)"><g clip-path="url(#59de39b310)"><path fill="#ac6aff" d="M 0.488281 0 L 35.511719 0 L 35.511719 35.027344 L 0.488281 35.027344 Z M 0.488281 0 " fill-opacity="1" fill-rule="nonzero"/></g></g><g clip-path="url(#a9ab0702c0)"><path fill="#000000" d="M 22.308594 22.679688 L 19.429688 22.679688 C 19.226562 22.679688 19.0625 22.515625 19.0625 22.320312 C 19.0625 22.121094 19.226562 21.960938 19.429688 21.960938 L 22.308594 21.960938 L 22.308594 20.984375 C 22.308594 20.785156 22.472656 20.625 22.675781 20.625 C 22.878906 20.625 23.042969 20.785156 23.042969 20.984375 L 23.042969 21.417969 C 24.308594 21.589844 25.226562 22.316406 25.226562 23.183594 C 25.226562 24.050781 24.308594 24.777344 23.042969 24.949219 L 23.042969 25.382812 C 23.042969 25.582031 22.878906 25.742188 22.675781 25.742188 C 22.472656 25.742188 22.308594 25.582031 22.308594 25.382812 L 22.308594 24.40625 L 19.429688 24.40625 C 19.226562 24.40625 19.0625 24.246094 19.0625 24.046875 C 19.0625 23.847656 19.226562 23.6875 19.429688 23.6875 L 22.308594 23.6875 Z M 20.09375 21.363281 L 16.105469 21.363281 L 16.105469 25.683594 C 16.105469 26.042969 16.40625 26.335938 16.773438 26.335938 L 23.476562 26.335938 C 23.585938 26.335938 23.683594 26.386719 23.753906 26.464844 L 25.253906 28.183594 L 25.421875 26.664062 C 25.445312 26.480469 25.605469 26.34375 25.789062 26.34375 L 25.945312 26.34375 C 26.3125 26.34375 26.613281 26.046875 26.613281 25.6875 L 26.613281 20.496094 C 26.613281 20.136719 26.3125 19.839844 25.945312 19.839844 L 21.609375 19.839844 L 21.609375 19.871094 C 21.621094 20.695312 20.9375 21.363281 20.09375 21.363281 Z M 20.09375 21.363281 " fill-opacity="1" fill-rule="evenodd"/></g><path fill="#000000" d="M 23.050781 22.140625 L 23.050781 24.214844 C 23.871094 24.074219 24.492188 23.644531 24.492188 23.179688 C 24.492188 22.710938 23.871094 22.285156 23.050781 22.140625 Z M 23.050781 22.140625 " fill-opacity="1" fill-rule="evenodd"/><g clip-path="url(#920f48003c)"><path fill="#000000" d="M 16.515625 18.101562 L 16.839844 19.042969 C 16.90625 19.230469 16.800781 19.433594 16.609375 19.496094 C 16.570312 19.507812 16.53125 19.519531 16.488281 19.519531 C 16.335938 19.519531 16.191406 19.421875 16.136719 19.273438 L 15.894531 18.574219 L 14.058594 18.574219 L 13.816406 19.273438 C 13.75 19.460938 13.542969 19.5625 13.351562 19.496094 C 13.15625 19.433594 13.054688 19.230469 13.121094 19.042969 L 13.441406 18.109375 C 13.441406 18.101562 13.449219 18.089844 13.449219 18.085938 L 14.628906 14.679688 C 14.675781 14.535156 14.820312 14.433594 14.980469 14.433594 C 15.136719 14.433594 15.28125 14.53125 15.332031 14.679688 L 16.507812 18.085938 Z M 9.078125 14.085938 L 9.078125 19.871094 C 9.078125 20.296875 9.429688 20.644531 9.867188 20.644531 L 10.039062 20.644531 C 10.222656 20.644531 10.382812 20.785156 10.40625 20.96875 L 10.601562 22.753906 L 12.335938 20.769531 C 12.40625 20.6875 12.511719 20.640625 12.613281 20.640625 L 20.09375 20.640625 C 20.527344 20.640625 20.875 20.296875 20.875 19.867188 L 20.875 14.078125 C 20.875 14.019531 20.871094 13.953125 20.855469 13.894531 L 16.855469 13.894531 C 16.410156 13.875 16.011719 13.660156 15.753906 13.3125 L 9.867188 13.3125 C 9.433594 13.3125 9.078125 13.660156 9.078125 14.085938 Z M 9.078125 14.085938 " fill-opacity="1" fill-rule="evenodd"/></g><path fill="#000000" d="M 14.980469 15.925781 L 14.308594 17.851562 L 15.648438 17.851562 Z M 14.980469 15.925781 " fill-opacity="1" fill-rule="evenodd"/><g clip-path="url(#6ccb926d0f)"><path fill="#000000" d="M 22.25 11.183594 C 22.609375 11.5625 23.03125 11.886719 23.519531 12.0625 C 23.714844 12.132812 23.8125 12.335938 23.738281 12.523438 C 23.683594 12.667969 23.542969 12.757812 23.394531 12.757812 C 23.351562 12.757812 23.3125 12.753906 23.269531 12.738281 C 22.6875 12.535156 22.1875 12.164062 21.769531 11.734375 C 21.355469 12.164062 20.847656 12.535156 20.273438 12.738281 C 20.230469 12.753906 20.191406 12.757812 20.148438 12.757812 C 19.992188 12.757812 19.855469 12.667969 19.800781 12.523438 C 19.730469 12.335938 19.828125 12.125 20.019531 12.0625 C 20.507812 11.890625 20.933594 11.5625 21.292969 11.1875 C 20.746094 10.480469 20.386719 9.734375 20.230469 9.363281 L 19.164062 9.363281 C 18.960938 9.363281 18.796875 9.203125 18.796875 9.003906 C 18.796875 8.808594 18.960938 8.644531 19.164062 8.644531 L 20.464844 8.644531 C 20.472656 8.644531 20.480469 8.644531 20.488281 8.644531 L 23.054688 8.644531 C 23.058594 8.644531 23.070312 8.644531 23.074219 8.644531 L 24.375 8.644531 C 24.578125 8.644531 24.742188 8.808594 24.742188 9.003906 C 24.742188 9.203125 24.578125 9.363281 24.375 9.363281 L 23.3125 9.363281 C 23.152344 9.726562 22.796875 10.46875 22.25 11.183594 Z M 16.21875 7.007812 L 16.21875 12.476562 C 16.21875 12.582031 16.246094 12.691406 16.289062 12.78125 L 16.296875 12.792969 C 16.335938 12.867188 16.390625 12.9375 16.449219 12.992188 L 16.453125 12.996094 C 16.558594 13.085938 16.6875 13.152344 16.828125 13.171875 L 16.878906 13.171875 C 16.890625 13.171875 16.898438 13.171875 16.910156 13.171875 L 23.988281 13.171875 C 24.097656 13.171875 24.195312 13.222656 24.269531 13.300781 L 25.875 15.136719 L 26.054688 13.496094 C 26.078125 13.3125 26.230469 13.171875 26.421875 13.171875 L 26.585938 13.171875 C 26.988281 13.171875 27.3125 12.855469 27.3125 12.464844 L 27.3125 7 C 27.3125 6.605469 26.988281 6.289062 26.585938 6.289062 L 16.933594 6.289062 C 16.542969 6.300781 16.21875 6.617188 16.21875 7.007812 Z M 25.238281 7.953125 L 18.292969 7.953125 C 18.089844 7.953125 17.925781 7.792969 17.925781 7.59375 C 17.925781 7.394531 18.089844 7.234375 18.292969 7.234375 L 25.238281 7.234375 C 25.441406 7.234375 25.605469 7.394531 25.605469 7.59375 C 25.609375 7.792969 25.445312 7.953125 25.238281 7.953125 Z M 25.238281 7.953125 " fill-opacity="1" fill-rule="evenodd"/></g><path fill="#000000" d="M 21.03125 9.359375 C 21.1875 9.691406 21.4375 10.148438 21.765625 10.597656 C 22.09375 10.148438 22.339844 9.683594 22.5 9.359375 Z M 21.03125 9.359375 " fill-opacity="1" fill-rule="evenodd"/></svg>